<svg width="48939" height="29537" viewBox="0 0 48939 29537" fill="none" xmlns="http://www.w3.org/2000/svg">
<path d="M899.378 13512.5C695.454 13149.5 952.374 12700.1 1368.66 12691.8L5938.12 12599.6C6113.14 12596.1 6276.07 12509.6 6377.07 12366.6L9114.7 8490.87C9219.08 8343.11 9389.34 8255.99 9570.24 8257.79L15513.1 8316.99C15644.9 8318.3 15771.9 8366.86 15871 8453.85L17075.1 9510.7C17284.4 9694.37 17323.8 10005.3 17166.9 10235.3L15987.5 11964.2C15856.1 12156.9 15860.2 12411.5 15997.8 12599.8L17830.1 15107.3C18005.5 15347.3 17958.8 15683.2 17724.6 15866.4L11782.6 20513L6254.62 25089.8C5947.85 25343.7 5481.23 25198.4 5372.98 24815.1L3494.15 18162.9C3482.33 18121.1 3465.59 18080.8 3444.29 18042.8L899.378 13512.5Z" fill="#393E46"/>
<path d="M17452.2 20448.5L22042.3 21561.5L25208.5 22101.3L25530.3 24737.4L28284 27560.7L21124.1 29536.5L18155 28512.5L15147 27560.7L13739 23904.5L17452.2 20448.5Z" fill="#393E46"/>
<path d="M18283 19968L24171 17408L26347 14592L31019 16640L34283 15552L37099 17408L38571 22368.9L34283 23552L32335.3 25728L29419 27168L26347 24704L25899 21248L18283 19968Z" fill="#393E46"/>
<path d="M48938.5 832.468V6911.67L41930.9 9823.48L35115.4 8511.57L34027.5 2752.13L36203.2 0.515625L48938.5 832.468Z" fill="#393E46" stroke="black"/>
</svg>
