<svg width="50667" height="30051" viewBox="0 0 50667 30051" fill="none" xmlns="http://www.w3.org/2000/svg">
<path d="M448.744 11672.3L6216.45 11556L9281.37 7216.91L15717.4 7281.02L17441.7 8794.4L15768.3 11247.7L18144.7 14499.9L11782.6 19475L5602.94 24591.3L3476.36 17061.9L448.744 11672.3Z" fill="#393E46" fill-opacity="0.67"/>
<path d="M25898.7 3138.5L27370.5 6594.2L27370.6 6594.34L27370.7 6594.42L29610.5 8002.3L30762.4 15937.2L25899.2 13761.5L25898.8 13761.4L25898.6 13761.7L23210.9 17537.3L18667.4 13761.7L16939.6 11330L18667.4 8770.28L18667.7 8769.92L18667.3 8769.63L16235.3 6593.63L16235.2 6593.5H9388.23L12331.2 3714.48L18667 3138.5H25898.7Z" fill="#393E46" fill-opacity="0.67" stroke="black"/>
<path d="M17452.2 20962.5L22042.3 22075.5L25208.5 22615.3L25530.3 25251.4L28284 28074.7L21124.1 30050.5L18155 29026.5L15147 28074.7L13739 24418.5L17452.2 20962.5Z" fill="#393E46" fill-opacity="0.67"/>
<path d="M18283 20482L24171 17922L26347 15106L31019 17154L34283 16066L37099 17922L38571 22882.9L34283 24066L32335.3 26242L29419 27682L26347 25218L25899 21762L18283 20482Z" fill="#393E46" fill-opacity="0.67"/>
<path d="M43658.8 2752.45L43659 2752.53L43659.1 2752.48L50666.5 832.655V6911.67L43658.9 9823.48L36843.4 8511.57L35755.5 2752.13L37931.1 0.623047L43658.8 2752.45Z" fill="#393E46" fill-opacity="0.67" stroke="black"/>
<path d="M49450.5 17409.7L47146.8 18689.6L47146.6 18689.7L47146.5 18689.9L46205.9 22556.5L41342.6 24348.2L39211.6 17410.2L41790.6 15325.3L41791.3 15324.7L41790.5 15324.4L34238.7 12825L32427.9 9154.68L43710.2 11293.4L43710.4 11293.4L43710.5 11293.4L50602.4 8514.78L49450.5 17409.7Z" fill="#393E46" fill-opacity="0.67" stroke="black"/>
</svg>
