<svg xmlns="http://www.w3.org/2000/svg" version="1.1" xmlns:xlink="http://www.w3.org/1999/xlink" xmlns:svgjs="http://svgjs.dev/svgjs" width="1440" height="560" preserveAspectRatio="none" viewBox="0 0 1440 560"><g mask="url(&quot;#SvgjsMask1106&quot;)" fill="none"><path d="M -78.59221314150943,428 C 65.41,367.8 353.41,101.8 641.4077868584906,127 C 929.41,152.2 1073.41,539 1361.4077868584905,554 C 1649.41,569 2065.69,209.2 2081.4077868584905,202 C 2097.13,194.8 1568.28,454.8 1440,518" stroke="rgba(51, 58, 67, 1)" stroke-width="2"></path><path d="M -127.8684651799581,493 C 16.13,427.8 304.13,189.6 592.1315348200419,167 C 880.13,144.4 1024.13,401.4 1312.131534820042,380 C 1600.13,358.6 2006.56,27.6 2032.131534820042,60 C 2057.71,92.4 1558.43,445.6 1440,542" stroke="rgba(51, 58, 67, 1)" stroke-width="2"></path><path d="M -687.3839320032207,471 C -543.38,386.8 -255.38,65.4 32.61606799677925,50 C 320.62,34.6 464.62,379.6 752.6160679967793,394 C 1040.62,408.4 1335.14,113.8 1472.6160679967793,122 C 1610.09,130.2 1446.52,372.4 1440,435" stroke="rgba(51, 58, 67, 1)" stroke-width="2"></path><path d="M -814.5976598416977,181 C -670.6,236.6 -382.6,460.2 -94.59765984169766,459 C 193.4,457.8 337.4,179.2 625.4023401583023,175 C 913.4,170.8 1182.48,455.4 1345.4023401583024,438 C 1508.32,420.6 1421.08,158 1440,88" stroke="rgba(51, 58, 67, 1)" stroke-width="2"></path><path d="M -1153.7810716634258,157 C -1009.78,183.2 -721.78,282.8 -433.7810716634257,288 C -145.78,293.2 -1.78,133.4 286.2189283365743,183 C 574.22,232.6 775.46,525 1006.2189283365743,536 C 1236.98,547 1353.24,297.6 1440,238" stroke="rgba(51, 58, 67, 1)" stroke-width="2"></path><path d="M -526.627108514539,167 C -382.63,238 -94.63,508.2 193.37289148546097,522 C 481.37,535.8 625.37,254.2 913.372891485461,236 C 1201.37,217.8 1528.05,462 1633.372891485461,431 C 1738.7,400 1478.67,151 1440,81" stroke="rgba(51, 58, 67, 1)" stroke-width="2"></path><path d="M -5.462368421783594,221 C 138.54,288.8 426.54,551.8 714.5376315782164,560 C 1002.54,568.2 1146.54,272.8 1434.5376315782164,262 C 1722.54,251.2 2153.45,544.6 2154.5376315782164,506 C 2155.63,467.4 1582.91,156.4 1440,69" stroke="rgba(51, 58, 67, 1)" stroke-width="2"></path><path d="M -1287.1037088463618,151 C -1143.1,220 -855.1,522 -567.1037088463619,496 C -279.1,470 -135.1,19 152.89629115363812,21 C 440.9,23 615.48,478 872.8962911536381,506 C 1130.32,534 1326.58,230 1440,161" stroke="rgba(51, 58, 67, 1)" stroke-width="2"></path></g><defs><mask id="SvgjsMask1106"><rect width="1440" height="560" fill="#ffffff"></rect></mask></defs></svg>